<?xml version="1.0" encoding="UTF-8" standalone="no"?>
<!-- Created with Inkscape (http://www.inkscape.org/) -->

<svg
   xmlns:dc="http://purl.org/dc/elements/1.1/"
   xmlns:cc="http://creativecommons.org/ns#"
   xmlns:rdf="http://www.w3.org/1999/02/22-rdf-syntax-ns#"
   xmlns:svg="http://www.w3.org/2000/svg"
   xmlns="http://www.w3.org/2000/svg"
   xmlns:sodipodi="http://sodipodi.sourceforge.net/DTD/sodipodi-0.dtd"
   xmlns:inkscape="http://www.inkscape.org/namespaces/inkscape"
   width="210mm"
   height="297mm"
   viewBox="0 0 744.09448819 1052.3622047"
   id="svg3518"
   version="1.1"
   inkscape:version="0.91 r13725"
   sodipodi:docname="islug_icon.svg">
  <defs
     id="defs3520" />
  <sodipodi:namedview
     id="base"
     pagecolor="#ffffff"
     bordercolor="#666666"
     borderopacity="1.0"
     inkscape:pageopacity="0.0"
     inkscape:pageshadow="2"
     inkscape:zoom="0.35"
     inkscape:cx="375"
     inkscape:cy="520"
     inkscape:document-units="px"
     inkscape:current-layer="layer1"
     showgrid="false"
     inkscape:window-width="1364"
     inkscape:window-height="751"
     inkscape:window-x="0"
     inkscape:window-y="15"
     inkscape:window-maximized="0" />
  <metadata
     id="metadata3523">
    <rdf:RDF>
      <cc:Work
         rdf:about="">
        <dc:format>image/svg+xml</dc:format>
        <dc:type
           rdf:resource="http://purl.org/dc/dcmitype/StillImage" />
        <dc:title></dc:title>
      </cc:Work>
    </rdf:RDF>
  </metadata>
  <g
     inkscape:label="Layer 1"
     inkscape:groupmode="layer"
     id="layer1">
    <path
       style="fill:#000000"
       d="m 427.48598,689.10771 -4.87115,-0.43641 0.57579,-3.54817 c 0.55642,-3.42882 0.48482,-3.52873 -2.12885,-2.97047 -1.48755,0.31773 -5.70728,1.07054 -9.37718,1.67291 -12.5528,2.06038 -24.01451,-1.98555 -30.1057,-10.62719 -2.28118,-3.23634 -3.78638,-4.41164 -5.66426,-4.42279 -1.40663,-0.008 -7.47124,-0.90835 -13.47692,-2 -12.85544,-2.33672 -21.41788,-2.45206 -35.08058,-0.47254 -5.5,0.79686 -11.8,1.45928 -14,1.47204 -3.78259,0.0219 -4.09888,0.26365 -5.81925,4.44737 -2.67412,6.50313 -10.17848,13.07573 -17.28979,15.14304 -4.99907,1.45327 -6.74038,1.52234 -12.34481,0.48969 -10.20719,-1.88075 -17.2064,-6.22882 -29.07882,-18.06441 -9.51173,-9.48222 -11.73609,-11.13006 -22.9478,-17 -6.82832,-3.575 -14.35111,-8.33536 -16.71733,-10.57858 -4.04736,-3.837 -4.3022,-4.40234 -4.3022,-9.54424 0,-5.62575 1.2737,-8.31643 9.33757,-19.72552 1.66326,-2.35325 3.76875,-7.6642 5.08763,-12.83319 2.75457,-10.79582 4.50916,-14.29447 9.04291,-18.03157 l 3.50983,-2.8931 -1.47161,-6.9469 c -1.86676,-8.81229 -1.90975,-22.16332 -0.10178,-31.60893 4.12193,-21.53476 13.79901,-40.04836 36.46936,-69.771 11.38388,-14.92518 15.91263,-22.48408 19.2122,-32.06697 1.99775,-5.80202 2.31369,-9.29191 2.94219,-32.5 0.49954,-18.44579 1.20003,-28.29754 2.41093,-33.90767 4.84069,-22.42685 14.58289,-35.06446 31.40219,-40.73504 7.83401,-2.64121 24.05229,-3.09638 33.15858,-0.93061 14.20393,3.37816 25.47255,11.93521 30.92839,23.48608 5.96122,12.62083 7.11703,24.14029 6.17939,61.58724 -0.6428,25.67197 3.7615,38.98747 20.20883,61.09732 10.72401,14.41609 18.46195,26.65999 24.42538,38.64877 4.63832,9.32478 6.43956,11.36406 4.29321,4.86058 -0.74487,-2.25699 -0.91601,-6.04525 -0.4752,-10.5188 l 0.68892,-6.99146 -5.07745,-6.38093 c -4.34439,-5.45966 -4.87746,-6.58554 -3.6922,-7.7982 0.93624,-0.95789 1.56208,-5.05625 1.9308,-12.64398 0.51487,-10.59564 0.42997,-11.28854 -1.51037,-12.32698 -1.9013,-1.01755 -2.00371,-1.67732 -1.36174,-8.7733 0.38179,-4.22016 1.31694,-8.38345 2.07811,-9.25176 1.83955,-2.0985 1.7668,-6.83711 -0.11607,-7.55963 -1.91968,-0.73666 -1.90579,-2.25575 0.0403,-4.40615 1.94557,-2.14983 7.16958,-30.38094 7.82739,-42.30005 0.50949,-9.23164 1.54647,-12.82819 1.75074,-6.0721 0.0651,2.15417 0.0815,4.20512 0.0363,4.55766 -0.30234,2.36092 5.14309,37.91987 6.4574,42.16715 0.38351,1.23936 1.34547,1.71121 3.05803,1.5 2.31259,-0.28521 3.42006,-2.77736 14.88282,-33.4908 12.19783,-32.68298 12.3754,-33.27816 11.79206,-39.52498 -0.47933,-5.133 -0.28268,-6.59925 1.03134,-7.68979 1.38462,-1.14911 1.62362,-3.9157 1.62362,-18.79457 l 0,-17.4471 2.25,0.31955 c 2.05133,0.29133 2.27646,0.93112 2.5497,7.24565 0.20731,4.79071 0.7713,7.27094 1.8293,8.04457 1.21799,0.89061 1.46251,2.89242 1.2003,9.82623 l -0.3293,8.70777 4.52749,-0.002 c 2.58625,-0.001 5.53417,0.70277 6.87532,1.64214 2.15683,1.51071 2.30596,2.16595 1.83324,8.05505 -0.56577,7.04828 -1.50941,4.09188 16.94908,53.10093 7.37709,19.58687 7.73657,20.28988 10.22654,19.99999 2.50851,-0.29204 2.65517,-0.71988 5.24456,-15.30044 2.53783,-14.29023 3.70008,-23.90208 3.79886,-31.41667 0.0794,-6.03907 1.31317,-2.37605 1.73156,5.14084 0.56193,10.09598 6.19995,39.9349 7.90835,41.85456 1.81719,2.0419 1.78347,3.56205 -0.095,4.2829 -2.27701,0.87376 -1.91895,6.34379 0.5,7.63837 1.73791,0.93009 2,2.09381 2,8.88019 0,6.62116 -0.31422,8.09419 -2.06449,9.67817 -1.72634,1.56232 -1.96283,2.61142 -1.44382,6.40499 0.34137,2.49515 0.65908,7.3469 0.70601,10.78165 0.0533,3.89919 0.58743,6.6617 1.42199,7.35432 1.07734,0.89412 0.4194,2.30156 -3.39152,7.255 l -4.72817,6.14564 -0.16006,8.5 c -0.088,4.675 -0.36673,10.97124 -0.61931,13.99165 -0.25259,3.02041 -0.0889,10.67041 0.36383,17 0.45269,6.32959 1.06272,17.42242 1.35563,24.65072 0.86226,21.27874 1.55067,31.47623 2.55568,37.85763 0.51972,3.3 1.15761,7.8 1.41754,10 0.41746,3.53334 1.84048,7.46493 4.55319,12.57979 1.41502,2.66806 2.24059,13.91512 2.39036,32.56481 0.13635,16.97949 0.23796,17.84176 2.14314,18.18705 2.89767,0.52517 3.38687,1.23943 4.3388,6.33487 l 0.8564,4.58413 -6.40419,0.51406 c -3.52231,0.28274 -11.07467,0.2757 -16.78303,-0.0156 l -10.37885,-0.52971 -0.64585,-6.60968 c -1.13275,-11.59253 -2.31863,-17.96046 -4.00752,-21.51953 -3.16181,-6.66306 -20.57273,-15.59019 -30.40607,-15.59019 l -3.75211,0 0.0642,5.75 c 0.1223,10.95351 -5.24478,15.39163 -21.56088,17.829 -5.00023,0.74696 -9.25504,1.52181 -9.45512,1.72189 -0.20008,0.20008 -0.65662,4.48923 -1.01453,9.53145 l -0.65074,9.16766 -6.20356,0 c -3.41196,0 -8.85708,0.1695 -12.10026,0.37667 -3.24318,0.20716 -8.08871,0.18028 -10.76784,-0.0597 z m -135.84673,-6.86998 c 6.85828,-2.86487 12.24955,-9.75089 13.69614,-17.49346 0.86735,-4.64233 -0.84837,-14.847 -5.04573,-30.01065 -2.55399,-9.22672 -3.72254,-15.98988 -4.40591,-25.5 -1.38199,-19.23244 -3.31776,-26.72446 -8.31791,-32.19284 -2.79993,-3.06213 -4.70383,-2.86091 -4.73067,0.5 -0.0467,5.85057 -5.6268,14.40556 -10.63917,16.31126 -6.10686,2.32183 -15.53164,-0.7006 -24.11379,-7.73303 -3.96732,-3.25091 -4.79275,-3.52814 -9.23408,-3.10139 -8.93022,0.85808 -12.17876,4.90933 -15.45439,19.27316 -1.62087,7.10757 -3.01819,9.90994 -9.87001,19.79458 -4.79053,6.91095 -5.70412,12.13092 -2.7737,15.84804 1.14584,1.45345 6.25118,4.78522 11.34522,7.40395 14.70331,7.55864 19.5742,11.02812 30.8061,21.94281 5.79932,5.63554 12.09932,11.05651 14,12.0466 8.66104,4.51166 18.21471,5.63586 24.7379,2.91097 z m 130.53468,-5.753 c 3.74924,-1.37182 7.06013,-2.73755 7.35754,-3.03496 0.29741,-0.29741 0.72877,-8.10485 0.95857,-17.34987 0.22981,-9.24501 0.85641,-18.96877 1.39246,-21.60834 0.53605,-2.63957 0.97903,-6.23957 0.9844,-8 0.005,-1.76043 1.18858,-5.67578 2.62935,-8.70078 3.52924,-7.40992 4.16109,-11.00889 4.95968,-28.25 l 0.6832,-14.75 -2.891,0.0165 c -4.35375,0.0248 -10.37207,3.92013 -14.67427,9.49792 -2.11501,2.7421 -6.81662,11.02155 -10.44803,18.3988 -4.4178,8.97478 -9.58969,17.41267 -15.62988,25.5 -12.09809,16.19829 -15.63882,23.06832 -15.63882,30.34372 0,10.05608 4.83023,16.75027 14.33975,19.87336 6.01077,1.97404 17.66374,1.10542 25.97705,-1.93635 z m 51.61975,-13.85967 c 7.69052,-1.49032 11.06345,-5.02399 11.06345,-11.59069 0,-2.70064 -0.27802,-5.18828 -0.61782,-5.52808 -1.13512,-1.13511 -10.44703,3.09316 -15.93172,7.23414 -4.99698,3.77276 -8.45046,8.30437 -8.45046,11.08859 0,1.17782 2.96969,0.92128 13.93655,-1.20396 z M 362.75402,650.25334 c 3.51828,-0.82933 9.36828,-3.09322 13,-5.03086 5.47893,-2.92319 7.40181,-4.68856 11.29447,-10.36931 2.58025,-3.76548 4.41775,-7.11994 4.08334,-7.45436 -0.33442,-0.33442 -1.59232,-0.60803 -2.79534,-0.60803 -1.20302,0 -3.37802,-1.10351 -4.83334,-2.45225 -8.17236,-7.5739 2.50372,-25.17893 24.89361,-41.04995 16.36006,-11.59679 20.55972,-18.25233 21.25269,-33.6809 0.37,-8.23763 0.0537,-11.01219 -2.11898,-18.58646 -1.40465,-4.89684 -3.73071,-11.56444 -5.16904,-14.81689 -3.80381,-8.60148 -11.60138,-22.6498 -12.22545,-22.02573 -0.29467,0.29467 1.97945,5.84046 5.05359,12.32397 7.78006,16.40848 9.99289,25.09094 9.48473,37.21515 -0.33275,7.93895 -0.8882,10.59725 -3.25397,15.57306 l -2.85272,6 -1.33537,-9.43116 c -2.20025,-15.53951 -5.00397,-24.43177 -15.31365,-48.56884 -13.3074,-31.15531 -15.46138,-37.85524 -19.71958,-61.33742 l -0.42387,-2.33742 -3.709,2.73933 c -2.03996,1.50663 -5.28401,4.224 -7.20901,6.03859 -8.95851,8.44471 -20.15763,8.61895 -32.70556,0.50883 -3.29613,-2.13039 -7.63648,-4.46774 -9.64522,-5.19411 -2.00874,-0.72637 -5.86496,-2.9954 -8.56937,-5.0423 l -4.9171,-3.72161 -4.17103,13.17305 c -5.76398,18.20395 -10.96138,31.37456 -19.99666,50.67306 -9.88701,21.11771 -12.69247,28.85381 -16.4097,45.25 -0.5347,2.35848 -1.12257,2.75 -4.12916,2.75 -4.71393,0 -5.79191,-2.81269 -5.74884,-15 0.0534,-15.11597 5.6087,-29.38776 16.46843,-42.30813 4.90406,-5.8346 4.0749,-7.83385 -0.90905,-2.19187 -6.01756,6.81205 -13.01815,18.23138 -16.11791,26.29144 -4.12761,10.73273 -5.52794,18.84694 -4.88113,28.28374 l 0.54688,7.97877 -4.15729,2.09859 c -7.05387,3.56079 -13.35596,8.69268 -15.04446,12.25093 -2.08261,4.38878 -2.14384,9.59653 -0.11283,9.59653 0.99609,0 1.5,-0.99613 1.5,-2.9652 0,-6.19158 10.99119,-14.28061 23.89656,-17.58681 4.97816,-1.27535 6.85564,-1.35484 9.71449,-0.41134 3.59796,1.18743 7.37799,5.87859 7.38521,9.16531 0.002,0.93608 1.93322,3.02947 4.29147,4.65199 8.11528,5.58347 11.77595,16.16068 13.20194,38.14605 0.68492,10.55967 3.7551,25.3849 5.75642,27.79645 1.49395,1.8002 11.17159,7.33098 17.65867,10.09196 11.71327,4.98532 27.04396,6.39058 38.99213,3.57415 z m 149.10311,-37.35127 c 0,-1.36345 -0.96442,-2.06963 -3.46785,-2.53928 -6.60261,-1.23866 -6.53215,-0.91821 -6.53215,-29.70918 0,-15.1883 0.41029,-26.76094 0.98696,-27.83847 0.5807,-1.08504 2.63888,-2.12325 5,-2.52216 3.04849,-0.51504 4.01304,-1.13758 4.01304,-2.5901 0,-1.8139 -0.95014,-1.9121 -18.5,-1.9121 -17.47992,0 -18.5,0.1043 -18.5,1.89159 0,1.23298 0.95749,2.12701 2.75,2.56772 1.5125,0.37188 3.7625,1.33103 5,2.13147 2.24135,1.44973 2.25,1.55859 2.25,28.30983 0,29.6037 0.19305,28.70697 -6.41077,29.77862 -2.63107,0.42697 -3.58923,1.08143 -3.58923,2.45161 0,1.75819 1.09834,1.86916 18.5,1.86916 17.46997,0 18.5,-0.10516 18.5,-1.88871 z M 275.10642,584.04078 c 3.56096,-3.7327 4.75071,-7.29954 4.75071,-14.24252 0,-5.20269 -0.3091,-6.10546 -2.74711,-8.02319 -3.55596,-2.79712 -8.54231,-2.10037 -16.57152,2.31556 -9.64457,5.30436 -11.04426,10.74385 -4.3741,16.99864 6.71866,6.30026 14.57893,7.52503 18.94202,2.95151 z m 228.25071,-59.00015 c 7.36447,-3.62865 11.5,-9.67517 11.5,-16.81404 0,-11.64322 -11.30917,-20.24621 -25.06358,-19.06608 -15.75442,1.35173 -24.54002,14.68614 -18.05349,27.40079 2.33702,4.58094 8.94219,9.11014 15.01441,10.29547 4.73187,0.92369 12.84276,0.0365 16.60266,-1.81614 z M 364.76669,453.61972 c 3.67653,-2.10244 10.73658,-7.85737 17.72378,-14.44736 3.57373,-3.37057 4.36666,-4.76779 4.36666,-7.69452 0,-3.0763 -0.71633,-4.17784 -5.1254,-7.88158 -2.81896,-2.36801 -7.39615,-6.27319 -10.17153,-8.67818 -6.3734,-5.52284 -10.22815,-7.1273 -17.12344,-7.1273 -4.45611,0 -6.8933,0.7419 -12.99661,3.95627 -4.13159,2.17596 -10.90352,5.36818 -15.04873,7.09383 -10.70868,4.45804 -13.63606,9.00968 -10.1293,15.74956 2.15528,4.14239 5.74788,7.04752 13.76363,11.12986 4.03226,2.05359 9.55054,5.01866 12.26284,6.58905 8.25473,4.77939 15.65721,5.21092 22.4781,1.31037 z m -16.40956,-9.56878 c -5.76992,-2.07292 -26.41934,-13.39342 -26.46759,-14.51016 -0.0817,-1.88989 4.0532,-0.31628 12.40091,4.71942 11.01006,6.64176 16.14768,8.53058 23.2033,8.53058 6.82359,0 12.33884,-2.55138 19.70245,-9.11447 6.95025,-6.19465 7.67474,-4.04289 0.80297,2.38484 -9.45872,8.84752 -19.62623,11.5881 -29.64204,7.98979 z m 35.54746,-30.63921 c 4.38093,-9.91501 3.06549,-22.26437 -2.98948,-28.0654 -7.67249,-7.35072 -17.50234,0.22517 -18.79544,14.4857 -0.5096,5.62 -0.4775,5.70503 2.76457,7.32239 1.80409,0.9 3.37678,1.63636 3.49486,1.63636 0.11808,0 0.45842,-1.81714 0.75631,-4.0381 0.6755,-5.03617 3.16714,-8.9619 5.68807,-8.9619 4.70214,0 6.66135,9.76762 3.35626,16.73258 -1.59085,3.35246 -1.58325,3.60367 0.14732,4.86909 2.37128,1.73392 3.36632,1.02375 5.57753,-3.98072 z m -58.60222,2.96638 3.381,-1.41268 -1.50319,-4.33732 c -1.72211,-4.96899 -1.26299,-10.75385 1.14517,-14.42917 4.49538,-6.86082 11.29665,-3.02165 13.00641,7.34184 0.76028,4.60828 1.1366,4.83989 5.00229,3.07856 3.25063,-1.48109 3.91303,-4.12633 2.55298,-10.19515 -2.5809,-11.51648 -8.0255,-17.13341 -16.60774,-17.13341 -6.30189,0 -11.21456,3.37397 -14.35327,9.8577 -3.91804,8.09359 -3.68567,19.90259 0.51933,26.3923 1.70961,2.63849 2.35702,2.71755 6.85702,0.83733 z m 214.63371,-35.17066 c 0.048,-1.16495 0.28494,-1.4019 0.60416,-0.60417 0.28887,0.72188 0.25335,1.58437 -0.0789,1.91667 -0.33229,0.33229 -0.56864,-0.25834 -0.52522,-1.3125 z"
       id="path3639"
       inkscape:connector-curvature="0" />
  </g>
</svg>
