<?xml version="1.0" encoding="UTF-8" standalone="no"?>
<!-- Created with Inkscape (http://www.inkscape.org/) -->

<svg
   xmlns:dc="http://purl.org/dc/elements/1.1/"
   xmlns:cc="http://creativecommons.org/ns#"
   xmlns:rdf="http://www.w3.org/1999/02/22-rdf-syntax-ns#"
   xmlns:svg="http://www.w3.org/2000/svg"
   xmlns="http://www.w3.org/2000/svg"
   xmlns:sodipodi="http://sodipodi.sourceforge.net/DTD/sodipodi-0.dtd"
   xmlns:inkscape="http://www.inkscape.org/namespaces/inkscape"
   width="40"
   height="40"
   viewBox="0 0 40 40.000001"
   id="svg2"
   version="1.1"
   inkscape:version="0.91 r13725"
   sodipodi:docname="islug_icon_fb.svg">
  <defs
     id="defs4" />
  <sodipodi:namedview
     id="base"
     pagecolor="#ffffff"
     bordercolor="#666666"
     borderopacity="1.0"
     inkscape:pageopacity="0.0"
     inkscape:pageshadow="2"
     inkscape:zoom="1"
     inkscape:cx="300.71429"
     inkscape:cy="-80"
     inkscape:document-units="px"
     inkscape:current-layer="layer1"
     showgrid="false"
     units="px"
     inkscape:window-width="1364"
     inkscape:window-height="751"
     inkscape:window-x="0"
     inkscape:window-y="15"
     inkscape:window-maximized="0" />
  <metadata
     id="metadata7">
    <rdf:RDF>
      <cc:Work
         rdf:about="">
        <dc:format>image/svg+xml</dc:format>
        <dc:type
           rdf:resource="http://purl.org/dc/dcmitype/StillImage" />
        <dc:title></dc:title>
      </cc:Work>
    </rdf:RDF>
  </metadata>
  <g
     inkscape:label="Layer 1"
     inkscape:groupmode="layer"
     id="layer1"
     transform="translate(0,-1012.3622)">
    <g
       id="g3555"
       transform="matrix(0.04792311,0,0,0.04792311,3.783361,1006.4138)">
      <path
         style="fill:#cdcdcd"
         d="M 145.92548,852.34503 C 126.9305,849.37866 110.36164,840.3324 94.052853,824.0236 82.347089,812.31784 75.099426,801.63026 70.132032,788.74938 c -6.231438,-16.15866 -5.989194,-6.1353 -5.989194,-247.81576 0,-232.19163 -0.01789,-231.19493 4.373713,-243.64206 10.407526,-29.49808 34.694909,-53.75002 65.126289,-65.03124 11.47523,-4.25399 12.00598,-4.26328 243.5,-4.26328 231.50345,0 231.81643,0.005 243.60611,4.26338 28.12116,10.15611 53.03208,34.07203 63.39845,60.86616 6.23803,16.12355 5.99544,6.09649 5.99544,247.80704 0,241.68046 0.24224,231.6571 -5.98919,247.81576 -9.69168,25.13135 -34.0637,49.50337 -59.19505,59.19505 -16.18763,6.24261 -5.92187,6.00043 -249.05918,5.87557 -181.29249,-0.0931 -222.83114,-0.3595 -229.97394,-1.47497 z M 493.14284,676.9688 c 0,-133.40097 0.0365,-135.98433 1.93426,-137 1.2578,-0.67315 19.06137,-1.03518 50.90757,-1.03518 l 48.97331,0 1.66036,-9.25 c 6.21785,-34.64013 13.06584,-75.87533 12.66697,-76.2742 -0.26169,-0.26169 -25.9608,-0.4758 -57.10914,-0.4758 -42.71481,0 -56.92825,-0.29492 -57.83333,-1.2 -0.88062,-0.88062 -1.2,-9.27835 -1.2,-31.55259 0,-39.3985 1.486,-46.61491 10.90617,-52.96316 6.42643,-4.33077 8.71377,-4.53439 58.09383,-5.17145 l 47.5,-0.6128 0.25999,-46.25 0.25998,-46.25 -61.25998,0.005 c -55.25215,0.004 -62.54318,0.1934 -74.34423,1.92967 -15.51793,2.28313 -23.0024,4.12905 -33.28911,8.21021 -28.85176,11.44669 -48.69133,34.25482 -56.71881,65.20554 -4.33868,16.72818 -4.61682,20.16808 -5.1042,63.12696 -0.2671,23.54281 -0.89294,42.75561 -1.42512,43.75 -0.87303,1.63129 -3.14442,1.77302 -28.4137,1.77302 l -27.46482,0 0,43 0,43 26.92857,0 c 23.14719,0 27.14924,0.22066 28.5,1.57143 1.4131,1.4131 1.57143,15.21645 1.57143,137 l 0,135.42857 57,0 57,0 0,-135.96482 z"
         id="path3569"
         inkscape:connector-curvature="0" />
      <path
         style="fill:#aaaaaa"
         d="m 148.14284,852.36551 c -38.6673,-7.04708 -69.92772,-36.36462 -81.309985,-76.25646 l -2.190017,-7.67543 -0.284905,-223 C 64.104145,346.7898 64.244071,321.41716 65.639067,313.1271 72.264314,273.75518 101.48006,242.17582 141.9674,230.62364 l 7.67544,-2.19002 223,-0.28491 c 244.03636,-0.31178 232.0229,-0.57404 248.75001,5.4304 28.80466,10.33986 52.32683,33.63177 62.71788,62.10392 6.35567,17.41493 6.02572,3.98592 6.02572,245.25059 0,241.26467 0.32995,227.83566 -6.02572,245.25059 -11.50083,31.51304 -37.8236,55.36712 -71.79246,65.05939 l -7.67543,2.19002 -224.5,0.14938 c -185.99927,0.12376 -225.78622,-0.085 -232,-1.21749 z m 346,-175.43189 0.5,-136.5 50.49813,-0.5 50.49813,-0.5 2.62318,-14.5 c 5.17291,-28.59391 11.8824,-68.54192 11.88149,-70.74188 l -9.3e-4,-2.24187 -57.75,-0.25813 -57.75,-0.25812 -0.26448,-31.41916 c -0.21697,-25.77486 0.0145,-32.51155 1.28876,-37.5 2.23621,-8.75464 5.32027,-12.86656 12.17473,-16.23234 l 5.80099,-2.8485 48.25,-0.32578 48.25,-0.32578 0,-47.42422 0,-47.42422 -59.78801,0 c -61.4474,0 -71.68076,0.50117 -89.71199,4.39358 -39.0594,8.43176 -65.73877,32.61115 -75.9627,68.84466 -5.40829,19.16694 -5.81679,23.52291 -6.21391,66.26176 -0.20442,22 -0.5926,41.00539 -0.86262,42.23421 l -0.49095,2.23421 -27.73491,0.26579 -27.73491,0.26579 0,43.5 0,43.5 26.9176,0.26665 c 17.81548,0.17648 27.36814,0.64057 28.25,1.37244 1.09791,0.91119 1.3324,25.02085 1.3324,136.99148 l 0,135.88568 57.75,-0.25813 57.75,-0.25812 0.5,-136.5 z"
         id="path3567"
         inkscape:connector-curvature="0" />
      <path
         style="fill:#8c8c8c"
         d="M 147.2508,851.82028 C 118.53315,845.79262 94.87222,829.0093 79.048135,803.44234 72.798198,793.34432 68.812634,783.03453 66.196933,770.19907 c -2.035221,-9.987 -2.054095,-12.09357 -2.054095,-229.26545 0,-217.17188 0.01887,-219.27845 2.054095,-229.26545 2.616091,-12.83738 6.601875,-23.14676 12.852422,-33.24327 16.010232,-25.86134 40.026275,-42.7006 69.093485,-48.44609 10.4616,-2.06787 11.31187,-2.07449 232.5,-1.81032 l 222,0.26513 9.51148,2.63189 c 18.42278,5.09772 34.18032,14.2212 47.40787,27.44875 13.22756,13.22756 22.35104,28.9851 27.44876,47.40788 l 2.63189,9.51148 0.26303,222.27897 c 0.26183,221.26788 0.25363,222.32512 -1.80409,232.42254 -5.96038,29.24808 -22.57566,52.87355 -48.45022,68.89197 -10.18857,6.30754 -20.39396,10.22939 -33.40726,12.83816 -10.25044,2.0549 -11.74685,2.0679 -229.95952,1.99736 -214.58989,-0.0694 -219.85797,-0.11635 -229.03398,-2.04234 z m 346.89204,-173.88666 0.5,-136.5 49.95945,-0.25945 c 27.47771,-0.14271 50.30577,-0.60577 50.72904,-1.02904 0.78309,-0.78309 2.17274,-7.63191 5.72421,-28.21151 1.09153,-6.325 3.8077,-21.92482 6.03595,-34.66627 2.22824,-12.74145 4.05135,-23.65395 4.05135,-24.25 0,-0.76571 -16.83724,-1.08373 -57.37756,-1.08373 -49.56853,0 -57.54557,-0.20245 -58.61209,-1.48753 -0.94488,-1.13851 -1.12298,-8.93995 -0.75906,-33.25 0.52459,-35.04343 1.14852,-39.23143 6.80437,-45.67308 6.21588,-7.0795 5.83912,-7.03219 60.44434,-7.58939 l 49,-0.5 0.25991,-47.43486 c 0.20429,-37.28479 -0.01,-47.60601 -1,-48.23469 -1.77734,-1.1283 -96.75,-0.99087 -117.25991,0.16968 -9.35,0.52907 -21.54266,1.83591 -27.09481,2.90408 -45.9481,8.8399 -73.04289,34.15039 -83.28324,77.7987 -3.65875,15.59498 -4.27054,23.46784 -4.95757,63.79709 l -0.66438,39 -27.76039,0.26584 -27.76039,0.26583 0.26039,44.23417 0.26039,44.23416 27.75,0.26582 27.75,0.26582 0,135.78418 c 0,104.78231 0.27583,136.06001 1.2081,136.99228 0.92203,0.92203 14.71538,1.14698 58.25,0.95 l 57.0419,-0.2581 0.5,-136.5 z"
         id="path3565"
         inkscape:connector-curvature="0" />
      <path
         style="fill:#6e6e6e"
         d="M 149.14284,851.94062 C 122.60674,846.31863 101.43232,833.17824 85.795586,812.62868 75.473559,799.06363 69.64997,785.93652 66.035503,768.08694 c -1.822464,-9 -1.892659,-17.41969 -1.892494,-227 1.5e-4,-190.10458 0.191667,-218.66589 1.51311,-225.65332 7.552204,-39.93396 33.998845,-70.39322 71.558971,-82.41625 16.63523,-5.32496 5.23452,-5.08341 239.92775,-5.08341 189.96821,0 218.51266,0.19151 225.5,1.51294 39.89432,7.54471 70.40515,34.03613 82.41625,71.55897 5.32508,16.63563 5.08339,5.22143 5.08358,240.08107 1.6e-4,209.58031 -0.07,218 -1.89249,227 -7.8456,38.74445 -33.62673,68.45705 -69.60734,80.22205 -18.2057,5.95293 -4.17158,5.63299 -242.5,5.52837 -206.41984,-0.0906 -218.96994,-0.19547 -227,-1.89674 z m 345.24107,-37.257 c 0.13259,-0.1375 0.47009,-61.675 0.75,-136.75 l 0.50893,-136.5 50.14654,-0.25919 c 38.84187,-0.20076 50.25403,-0.53933 50.62338,-1.50184 1.32976,-3.46528 14.93841,-85.75368 14.40963,-87.13167 -0.55667,-1.45065 -6.22962,-1.6073 -58.20863,-1.6073 l -57.59185,0 0.37327,-33.75 c 0.25718,-23.25373 0.75945,-34.92475 1.61501,-37.52733 1.70465,-5.18543 6.74706,-10.64629 12.13265,-13.13946 4.312,-1.99618 6.52619,-2.1041 53,-2.58321 l 48.5,-0.5 0,-48 0,-48 -57,-0.30873 c -37.31213,-0.2021 -61.31752,0.0865 -69.5,0.83558 -61.84304,5.66142 -94.47185,34.1669 -104.67065,91.44333 -1.21671,6.83302 -1.75646,19.00443 -2.21861,50.02982 l -0.61074,41 -26.9176,0.26665 c -17.81548,0.17648 -27.36814,0.64057 -28.25,1.37244 -1.07219,0.88984 -1.32941,9.43086 -1.31709,43.73335 0.008,23.44516 0.36791,43.18266 0.79886,43.86112 0.5832,0.91815 7.80267,1.30169 28.23469,1.5 l 27.45114,0.26644 0.24678,135.5 c 0.13574,74.525 0.45911,136.0625 0.71862,136.75 0.37,0.98022 12.99642,1.25 58.50322,1.25 31.91726,0 58.13986,-0.1125 58.27245,-0.25 z"
         id="path3563"
         inkscape:connector-curvature="0" />
      <path
         style="fill:#505050"
         d="M 157.64284,853.29557 C 126.18735,846.69971 110.93499,838.93059 93.550955,820.64898 79.04686,805.39601 70.62749,788.94018 66.192164,767.17567 64.117485,756.99504 64.112877,756.40561 64.398093,537.70122 l 0.285952,-219.2676 2.371508,-9 c 5.182637,-19.66838 13.612261,-34.89726 27.032953,-48.83747 14.015054,-14.55759 31.015004,-24.37202 51.554334,-29.76341 l 9,-2.36243 219.27813,-0.28154 c 218.63441,-0.28073 219.30807,-0.27545 229.47444,1.79632 21.75356,4.43309 38.2124,12.855 53.46279,27.35665 15.30908,14.55744 25.1378,31.55804 30.40548,52.59188 l 2.37916,9.5 0,221.5 0,221.5 -2.37916,9.5 c -5.16701,20.63188 -15.00544,37.82716 -29.78337,52.05433 -13.93818,13.41874 -29.15999,21.84517 -48.83747,27.03527 l -9,2.37383 -220,0.15895 c -121,0.0874 -220.9,-0.0298 -222,-0.26043 z M 494.89641,678.18362 c 0.13946,-74.9375 0.36446,-136.35208 0.5,-136.47684 0.13554,-0.12476 22.94299,-0.46226 50.68324,-0.75 l 50.4368,-0.52316 0.77037,-3 c 0.42371,-1.65 1.92846,-9.75 3.34389,-18 1.41544,-8.25 4.60367,-26.65854 7.08497,-40.90786 2.48129,-14.24932 4.13621,-26.28309 3.67758,-26.74172 -0.45862,-0.45862 -26.69009,-0.95009 -58.29214,-1.09214 l -57.45828,-0.25828 0.009,-32 c 0.008,-27.43371 0.25527,-32.79802 1.73213,-37.59242 2.13046,-6.91622 4.73446,-10.31473 10.10296,-13.18548 4.09212,-2.18822 4.90556,-2.22972 53.35665,-2.7221 32.67352,-0.33204 49.55682,-0.85605 50.25991,-1.55991 0.72264,-0.72344 0.97622,-16.11983 0.79882,-48.5 l -0.25947,-47.44009 -67,0 c -65.64947,0 -67.22506,0.0456 -78.16513,2.26396 -22.08063,4.47731 -37.72333,11.15221 -51.30714,21.89328 -16.60724,13.13178 -27.15393,30.70475 -33.57042,55.93526 -3.66307,14.40374 -4.45627,25.8634 -4.47262,64.61809 -0.008,19.95917 -0.36791,36.84451 -0.79886,37.52297 -0.5832,0.91815 -7.80267,1.30169 -28.23469,1.5 l -27.45114,0.26644 0,44.5 0,44.5 26.9176,0.26665 c 17.81548,0.17648 27.36814,0.64057 28.25,1.37244 1.09791,0.91119 1.3324,25.02083 1.3324,136.99135 l 0,135.88555 58.75,-0.258 58.75,-0.25799 0.25357,-136.25 z"
         id="path3561"
         inkscape:connector-curvature="0" />
      <path
         style="fill:#323232"
         d="m 157.64284,852.90425 c -38.27493,-6.10467 -68.003067,-27.80536 -83.225437,-60.75218 -1.879182,-4.06725 -4.847215,-12.64277 -6.59563,-19.05672 l -3.178935,-11.66173 0,-220.5 0,-220.5 3.178935,-11.66173 c 1.748415,-6.41395 4.716448,-14.98947 6.59563,-19.05672 13.435466,-29.0793 37.837777,-49.24282 70.225437,-58.02693 l 12,-3.25462 220.5,0 220.5,0 11.66173,3.17894 c 6.41395,1.74841 14.98947,4.71644 19.05672,6.59562 29.0793,13.43547 49.24282,37.83779 58.02693,70.22544 l 3.25462,12 0,220.5 0,220.5 -3.25462,12 c -10.66839,39.33513 -36.905,65.63723 -76.58579,76.77698 l -11.15959,3.13288 -218,0.17913 c -119.9,0.0985 -220.25,-0.17975 -223,-0.61836 z m 337.5,-173.97063 0.5,-136.5 50.27566,-0.25926 50.27566,-0.25927 0.93601,-2.24073 c 0.99997,-2.39388 15.01267,-83.15338 15.01267,-86.52269 0,-1.10224 -0.7118,-2.27722 -1.58179,-2.61106 -0.86998,-0.33385 -26.93966,-0.60699 -57.93261,-0.60699 -52.80428,0 -56.38329,-0.11014 -56.86665,-1.75 -0.28371,-0.9625 -0.17894,-16.15 0.2328,-33.75 0.68515,-29.28613 0.92368,-32.38164 2.81261,-36.5 2.44093,-5.32187 5.40739,-8.24814 10.84929,-10.70227 3.60864,-1.6274 8.62911,-1.84511 52.98635,-2.29773 l 49,-0.5 0.25972,-48.43498 c 0.20421,-38.08497 -0.009,-48.60587 -1,-49.23469 -1.87198,-1.18839 -108.03228,-0.99076 -124.17877,0.23117 -58.058,4.39371 -91.48195,28.92448 -104.60985,76.77609 -4.51411,16.45408 -5.22776,24.75998 -5.70617,66.41241 l -0.45657,39.75 -26.65418,0.0153 c -15.03643,0.009 -27.30798,0.42837 -28.15418,0.96296 -1.28814,0.8138 -1.53967,7.02732 -1.78088,43.99273 -0.18977,29.08348 0.0649,43.69118 0.78519,45.03705 1.0249,1.91504 2.12649,1.99195 28.53087,1.99195 l 27.46482,10e-6 0,135.8 c 0,104.78668 0.27587,136.07587 1.20797,137.00797 0.92223,0.92223 14.93739,1.14695 59.25,0.95 l 58.04203,-0.25797 0.5,-136.5 z"
         id="path3559"
         inkscape:connector-curvature="0" />
      <path
         style="fill:#000000"
         d="m 162.64284,853.24863 c -2.2,-0.20281 -4.9,-0.75815 -6,-1.23411 -1.1,-0.47595 -5.74605,-1.61803 -10.32454,-2.53796 -37.63506,-7.56179 -70.237171,-40.18385 -77.710781,-77.75833 -0.9063,-4.55654 -2.169113,-9.18461 -2.80625,-10.28461 -1.489241,-2.57113 -2.213329,-424.53861 -0.744582,-433.91076 4.226241,-26.96788 10.902762,-43.54112 24.198777,-60.06902 17.221506,-21.40757 39.967296,-33.19828 74.476616,-38.60637 9.37215,-1.46875 431.33963,-0.74466 433.91076,0.74458 1.1,0.63714 5.74604,1.90381 10.32454,2.81483 37.55226,7.47207 70.17792,40.12868 77.74302,77.81676 0.90639,4.51549 2.16198,9.2906 2.79021,10.61137 1.63977,3.4474 1.63977,436.74982 0,440.19722 -0.62823,1.32077 -1.89104,6.12946 -2.80625,10.686 -7.57442,37.71056 -40.13664,70.266 -77.76691,77.75071 -4.55654,0.9063 -9.18461,2.16911 -10.28461,2.80625 -1.49738,0.8673 -55.90605,1.18152 -216.5,1.2503 -117.975,0.0505 -216.3,-0.0741 -218.5,-0.27686 z m 331.56574,-37.35019 c 1.89779,-1.01567 1.93426,-3.59903 1.93426,-137 l 0,-135.96482 49.30887,0 c 38.03667,0 49.70218,-0.28759 51.02934,-1.25803 1.31164,-0.95911 2.78737,-7.43425 6.21046,-27.25 2.4695,-14.29559 5.85646,-33.5763 7.52658,-42.84604 1.67012,-9.26973 2.89892,-17.81973 2.73066,-19 l -0.30591,-2.14593 -58,-0.5 -58,-0.5 -0.28543,-22.5 c -0.496,-39.09834 1.33708,-50.54091 9.0262,-56.34387 5.85733,-4.4205 8.66796,-4.64467 58.30923,-4.65055 35.25476,-0.004 47.35084,-0.30642 48.25,-1.20558 0.90022,-0.90022 1.2,-13.27217 1.2,-49.52475 l 0,-48.32475 -2.75,-1.07442 c -3.62033,-1.41444 -122.27837,-0.44517 -134.25,1.09664 -55.55486,7.15485 -87.53089,36.05899 -97.46447,88.1012 -2.13993,11.21113 -3.48244,37.6511 -3.51166,69.16026 l -0.0239,25.73418 -27.75,0.26582 -27.75,0.26582 -0.26251,45 c -0.2416,41.41704 -0.12686,45.09953 1.44113,46.25 1.26091,0.92515 8.54069,1.25 28.01251,1.25 l 26.30887,0 0.0136,134.25 c 0.008,73.8375 0.2787,135.2384 0.60263,136.44644 0.32393,1.20804 1.33029,2.39334 2.23635,2.634 3.72998,0.99072 114.32893,0.64276 116.21311,-0.36562 z"
         id="path3557"
         inkscape:connector-curvature="0" />
    </g>
  </g>
</svg>
