<?xml version="1.0" encoding="UTF-8" standalone="no"?>
<!-- Created with Inkscape (http://www.inkscape.org/) -->

<svg
   xmlns:dc="http://purl.org/dc/elements/1.1/"
   xmlns:cc="http://creativecommons.org/ns#"
   xmlns:rdf="http://www.w3.org/1999/02/22-rdf-syntax-ns#"
   xmlns:svg="http://www.w3.org/2000/svg"
   xmlns="http://www.w3.org/2000/svg"
   xmlns:sodipodi="http://sodipodi.sourceforge.net/DTD/sodipodi-0.dtd"
   xmlns:inkscape="http://www.inkscape.org/namespaces/inkscape"
   width="40"
   height="40"
   viewBox="0 0 40 40.000001"
   id="svg3697"
   version="1.1"
   inkscape:version="0.91 r13725"
   sodipodi:docname="islug_icon_in.svg">
  <defs
     id="defs3699" />
  <sodipodi:namedview
     id="base"
     pagecolor="#ffffff"
     bordercolor="#666666"
     borderopacity="1.0"
     inkscape:pageopacity="0.0"
     inkscape:pageshadow="2"
     inkscape:zoom="1"
     inkscape:cx="295"
     inkscape:cy="120"
     inkscape:document-units="px"
     inkscape:current-layer="layer1"
     showgrid="false"
     units="px"
     inkscape:window-width="1364"
     inkscape:window-height="751"
     inkscape:window-x="0"
     inkscape:window-y="15"
     inkscape:window-maximized="0" />
  <metadata
     id="metadata3702">
    <rdf:RDF>
      <cc:Work
         rdf:about="">
        <dc:format>image/svg+xml</dc:format>
        <dc:type
           rdf:resource="http://purl.org/dc/dcmitype/StillImage" />
        <dc:title></dc:title>
      </cc:Work>
    </rdf:RDF>
  </metadata>
  <g
     inkscape:label="Layer 1"
     inkscape:groupmode="layer"
     id="layer1"
     transform="translate(0,-1012.3622)">
    <g
       id="g3767"
       transform="matrix(0.04789301,0,0,0.04789301,3.90135,1007.5828)">
      <path
         style="fill:#fdfdfd"
         d="m 46.999973,509.50505 0,-313 312.999997,0 313,0 0,313 0,313 -313,0 -312.999997,0 0,-313 z"
         id="path3783"
         inkscape:connector-curvature="0" />
      <path
         style="fill:#d4d4d4"
         d="m 78.499973,821.09246 c -7.513375,-1.70774 -13.343262,-5.20305 -20,-11.99101 -6.097571,-6.21777 -8.353619,-10.3197 -10.373356,-18.86075 -1.608838,-6.80346 -1.608838,-554.66785 0,-561.4713 2.023064,-8.55512 4.279448,-12.64745 10.373356,-18.8138 7.477872,-7.56677 13.052876,-10.68339 22.006888,-12.30262 5.562429,-1.0059 63.356149,-1.18335 282.493109,-0.86735 151.525,0.21851 277.26229,0.75273 279.4162,1.18716 5.86325,1.18259 14.7781,6.84285 20.1106,12.76871 5.09782,5.66509 7.60619,10.4951 9.36242,18.0279 1.58013,6.77747 1.58013,554.69383 0,561.4713 -1.76129,7.55448 -4.26789,12.36646 -9.4301,18.10317 -5.68992,6.32314 -13.84504,11.20539 -21.45912,12.84698 -7.74078,1.6689 -555.14586,1.57316 -562.499997,-0.0984 z m 156.499997,-242.08741 0,-139.5 -45.5,0 -45.5,0 0,139.5 0,139.5 45.5,0 45.5,0 0,-139.5 z m 147,56.63649 c 0,-50.61596 0.38674,-84.95974 0.99377,-88.25 1.50276,-8.14534 8.11762,-20.69314 14.30193,-27.1295 10.946,-11.39212 22.15637,-16.14512 38.2043,-16.19798 22.45693,-0.074 36.43622,9.80657 44.22192,31.25594 4.88211,13.45005 5.24001,20.5904 5.25976,104.93505 l 0.0183,78.25 45.5,0 45.5,0 0,-84.39405 c 0,-99.47858 -0.55567,-108.11157 -8.47529,-131.67439 -7.4958,-22.30187 -20.44382,-40.33985 -37.03631,-51.59554 -18.20606,-12.35028 -36.77192,-17.5475 -62.37918,-17.46205 -33.56779,0.112 -58.47151,12.47514 -78.44393,38.9425 -2.62155,3.47406 -5.30619,6.13721 -5.96587,5.91811 -0.85208,-0.28301 -1.34422,-5.87691 -1.69942,-19.31648 l -0.5,-18.9181 -45.25,-0.26019 -45.25,-0.26019 0,139.51019 0,139.51019 45.5,0 45.5,0 0,-82.86351 z M 202.41241,396.00593 c 15.57179,-3.29887 27.04029,-11.56788 33.12831,-23.88615 7.05511,-14.27506 7.07378,-28.91663 0.055,-43.11822 -8.47436,-17.1467 -26.67454,-26.47766 -49.09573,-25.17064 -28.8206,1.68007 -47.65789,20.07003 -47.65789,46.52613 0,32.06585 29.08847,52.95383 63.57033,45.64888 z"
         id="path3781"
         inkscape:connector-curvature="0" />
      <path
         style="fill:#a7a7a7"
         d="M 79.982536,821.01563 C 64.664447,816.80689 52.2686,804.63509 48.477489,790.08004 c -2.234177,-8.57759 -2.234177,-552.57239 0,-561.14998 3.82453,-14.68336 16.395549,-27.00523 31.560326,-30.93482 5.027695,-1.3028 40.250255,-1.4887 280.106495,-1.47832 225.88162,0.01 275.23908,0.2482 279.35566,1.34948 15.80494,4.22819 28.15258,16.20611 32.02248,31.06366 2.23418,8.57759 2.23418,552.57239 0,561.14998 -3.84514,14.76249 -16.31865,26.86252 -32.02248,31.06366 -7.10117,1.89972 -552.59153,1.77487 -559.517434,-0.12807 z m 155.517434,-242.01058 0,-140 -46,0 -46,0 -0.25347,140.25999 -0.25347,140.25999 46.25347,-0.25999 46.25347,-0.25999 0,-140 z m 147.5,53.5 c 0.54722,-94.66978 0.0692,-87.30937 6.49421,-99.98857 5.45515,-10.76523 19.01656,-22.27375 30.0144,-25.47091 8.00064,-2.32585 19.06156,-2.98222 25.9898,-1.54228 19.90573,4.13715 31.44958,17.18421 36.72017,41.50176 0.70027,3.23093 1.29558,34.54344 1.68256,88.5 l 0.59886,83.5 46.25,0.25999 46.25,0.25998 -0.009,-83.25998 c -0.0102,-99.25173 -0.6138,-109.04026 -8.18436,-132.72371 -11.28171,-35.29469 -35.57572,-59.00208 -69.30664,-67.63352 -12.32228,-3.15316 -34.30178,-4.29409 -47.85103,-2.48389 -10.69581,1.42897 -24.73323,6.29002 -34.30217,11.87859 -8.54939,4.99311 -20.61172,16.05675 -27.01665,24.77982 -2.59374,3.5325 -5.29417,6.42272 -6.00095,6.42272 -0.99139,0 -1.34724,-4.28493 -1.55713,-18.75 l -0.27207,-18.75 -46,0 -46,0 -0.25347,140.25999 -0.25347,140.25999 46.25347,-0.25999 46.25347,-0.25999 0.5,-86.5 z M 206.90789,395.8591 c 24.21858,-6.97274 38.24686,-28.79739 34.21482,-53.23012 -2.90716,-17.61635 -15.03116,-31.47148 -32.62274,-37.28077 -5.83484,-1.92684 -8.99742,-2.29787 -19,-2.22903 -10.24706,0.0705 -13.08696,0.46487 -19.4409,2.6995 -20.65187,7.26308 -32.02103,23.14877 -32.04827,44.77982 -0.0309,24.49989 16.24189,42.97325 41.37637,46.9718 6.94534,1.10491 20.71275,0.24887 27.52072,-1.7112 z"
         id="path3779"
         inkscape:connector-curvature="0" />
      <path
         style="fill:#919191"
         d="m 79.999973,820.61931 c -11.941551,-3.8608 -21.014448,-10.74147 -26.707657,-20.25447 -6.78141,-11.33131 -6.292343,11.27554 -6.292343,-290.85979 0,-296.06697 -0.309327,-278.59286 5.120046,-289.23531 2.938565,-5.76006 12.438879,-15.00075 18.666815,-18.15668 11.839934,-5.99975 -8.399751,-5.60801 289.741736,-5.60801 247.08343,0 273.62597,0.15203 278.5399,1.59538 16.51911,4.85211 28.3866,16.53093 32.3795,31.86472 1.38436,5.31632 1.552,35.50895 1.552,279.52164 0,262.71525 -0.0731,273.82505 -1.84286,280.20748 -4.32489,15.59689 -16.29205,27.0062 -32.85044,31.31911 -5.0113,1.30528 -39.90681,1.48495 -279.2668,1.43789 -259.353268,-0.051 -273.825144,-0.146 -279.039897,-1.83196 z M 235.96479,718.57079 c 1.12129,-2.09516 1.5418,-275.58193 0.42819,-278.48395 -0.5414,-1.41086 -5.6087,-1.58179 -46.89301,-1.58179 -41.28431,0 -46.35161,0.17093 -46.89301,1.58179 -0.33384,0.86998 -0.60699,63.77998 -0.60699,139.8 0,106.16972 0.27825,138.49645 1.2,139.41821 0.89799,0.89799 12.59218,1.2 46.46482,1.2 43.72854,0 45.29995,-0.0657 46.3,-1.93426 z m 147.11137,-84.06574 c 0.42285,-62.74572 0.90176,-86.68376 1.79953,-89.94802 3.42909,-12.46805 15.01873,-27.45488 25.68834,-33.21818 11.86954,-6.41145 31.36464,-7.70936 43.72052,-2.91076 13.20792,5.12951 22.91923,18.60004 26.72988,37.07696 1.85045,8.97237 1.96,13.98848 1.9724,90.31574 0.009,53.77113 0.35956,81.46303 1.04832,82.75 1.00014,1.86877 2.57333,1.93426 46.46482,1.93426 43.89149,0 45.46468,-0.0655 46.46482,-1.93426 1.30203,-2.43287 1.37726,-149.1306 0.0872,-170.06574 -1.56907,-25.46321 -5.641,-43.13011 -13.94424,-60.5 -15.71792,-32.88095 -43.18008,-51.58052 -81.56269,-55.53778 -40.35469,-4.16057 -71.50889,9.26463 -94.10031,40.55042 -3.79286,5.25257 -4.44478,2.822 -4.44478,-16.57166 l 0,-17.94098 -46.48289,0 -46.48288,0 -0.26712,139.25 c -0.14691,76.5875 0.0887,140.04203 0.52346,141.01006 0.74044,1.64846 3.68894,1.74357 46.5,1.5 l 45.70943,-0.26006 0.57619,-85.5 z M 206.64463,396.39117 c 13.49034,-4.15981 21.35898,-9.66491 27.90019,-19.51965 9.65856,-14.55124 10.33998,-32.55762 1.87226,-49.47391 -5.1658,-10.31994 -15.21126,-18.47692 -27.55791,-22.37722 -15.95111,-5.03896 -37.76075,-2.6762 -49.90701,5.4067 -26.10581,17.37248 -29.37519,53.65773 -6.72419,74.62856 6.81848,6.31271 9.64134,7.93515 19.272,11.07658 9.68279,3.15844 25.36679,3.274 35.14466,0.25894 z"
         id="path3777"
         inkscape:connector-curvature="0" />
      <path
         style="fill:#6b6b6b"
         d="m 82.274483,820.96601 c -12.427452,-3.34718 -24.05471,-12.12914 -29.635975,-22.38376 -6.029477,-11.07813 -5.638535,8.96476 -5.638535,-289.0772 0,-241.6678 0.17384,-273.24722 1.532909,-278.46504 4.286425,-16.4567 16.747623,-28.50784 34.170285,-33.04587 4.995251,-1.3011 40.003033,-1.48909 277.296803,-1.48909 237.29377,0 272.30155,0.18799 277.29681,1.48909 17.42266,4.53803 29.88386,16.58917 34.17028,33.04587 1.35907,5.21782 1.53291,36.79724 1.53291,278.46504 0,241.6678 -0.17384,273.24722 -1.53291,278.46504 -4.28642,16.4567 -16.74762,28.50784 -34.17028,33.04587 -8.37663,2.18183 -546.916051,2.13336 -555.022297,-0.0499 z M 236.75346,580.11172 c 0.18584,-102.55732 -0.047,-140.2554 -0.87244,-141.25 -1.55205,-1.87011 -90.81671,-2.021 -92.68105,-0.15667 -0.92187,0.92187 -1.2,33.56296 -1.2,140.83333 0,76.79834 0.3044,139.93774 0.67644,140.30978 0.37205,0.37204 21.63454,0.55954 47.25,0.41666 l 46.57356,-0.25977 0.25349,-139.89333 z m 146.63952,138.81154 c 0.33385,-0.86998 0.60699,-38.87283 0.60699,-84.45078 0,-56.85314 0.34835,-84.53262 1.10962,-88.16821 2.68491,-12.82242 14.80767,-28.81684 26.60999,-35.10847 9.96992,-5.31481 24.24257,-6.96677 36.07997,-4.17601 17.9805,4.23905 27.43491,15.70918 33.78268,40.98526 0.41437,1.65 1.01538,41.025 1.33557,87.5 l 0.58217,84.5 47,0 47,0 0.29181,-80.5 c 0.30564,-84.31474 -0.25998,-102.14267 -3.8011,-119.80682 -11.2368,-56.05245 -49.55433,-88.19318 -105.14212,-88.19318 -19.6271,0 -37.07151,4.36972 -51.81191,12.97858 -7.97747,4.65909 -20.43997,15.97086 -27.08509,24.58417 -2.30715,2.99049 -4.59008,5.43725 -5.0732,5.43725 -0.48311,0 -0.87839,-7.785 -0.87839,-17.3 0,-12.12222 -0.35915,-17.65915 -1.2,-18.5 -1.77242,-1.77242 -91.1534,-1.72411 -92.51319,0.05 -1.04212,1.35963 -1.79552,279.11788 -0.76163,280.79074 0.36465,0.59001 18.42815,0.95926 46.92685,0.95926 41.32805,0 46.39957,-0.1709 46.94098,-1.58179 z M 206.99997,396.80859 c 12.0225,-3.40893 22.06051,-10.73523 28.50364,-20.80354 13.68347,-21.38239 7.26923,-51.15504 -14.1791,-65.81434 -7.6693,-5.24174 -17.50778,-7.89603 -29.82454,-8.04626 -6.41134,-0.0782 -13.29433,0.43514 -16.5,1.2306 -23.08339,5.72789 -38,24.02234 -38,46.60505 0,14.07133 4.62486,25.43052 14.14785,34.74877 8.00626,7.83411 16.82534,12.05721 28.85215,13.81609 7.19563,1.05234 20.08923,0.22315 27,-1.73637 z"
         id="path3775"
         inkscape:connector-curvature="0" />
      <path
         style="fill:#505050"
         d="m 85.999973,821.76886 c -1.925,-0.22886 -7.212796,-2.15279 -11.750657,-4.2754 -10.087906,-4.71867 -17.643119,-11.86439 -21.66252,-20.48841 -1.538033,-3.3 -3.311763,-7.08062 -3.941623,-8.40139 -1.64682,-3.45324 -1.64682,-554.74398 0,-558.19722 0.62986,-1.32077 2.40359,-5.10139 3.941623,-8.40139 4.784272,-10.26512 14.852063,-18.70562 27.61921,-23.15503 5.095936,-1.77596 15.56216,-1.84497 279.793964,-1.84497 264.23181,0 274.69803,0.069 279.79397,1.84497 12.76714,4.44941 22.83494,12.88991 27.61921,23.15503 1.53803,3.3 3.31176,7.08062 3.94162,8.40139 1.64682,3.45324 1.64682,554.74398 0,558.19722 -0.62986,1.32077 -2.40359,5.10139 -3.94162,8.40139 -5.44279,11.67803 -19.26202,21.83913 -33.29967,24.48481 -5.19147,0.97844 -539.940925,1.25064 -548.113507,0.279 z M 235.75344,720.67857 c 0.99691,-0.63295 1.2016,-29.64385 1,-141.73468 l -0.25347,-140.93884 -47,0 -47,0 -0.25347,140.93884 c -0.20159,112.09083 0.003,141.10173 1,141.73468 0.68941,0.43772 21.50347,0.79585 46.25347,0.79585 24.75,0 45.56406,-0.35813 46.25347,-0.79585 z m 146.31227,-0.2087 c 1.88742,-1.01012 1.93501,-2.98964 1.96514,-81.75 0.0172,-45.06699 0.452,-84.02721 0.9844,-88.21482 1.82018,-14.31672 12.29924,-30.4117 24.42823,-37.51976 17.69622,-10.37068 42.37725,-8.8083 55.88577,3.53773 9.93066,9.07606 15.06835,22.43263 16.6614,43.31504 0.55245,7.24185 1.00556,46.30635 1.00689,86.81 0.002,66.22888 0.16168,73.70412 1.58422,74.25 2.41053,0.92501 90.73341,0.69361 92.20742,-0.24157 1.04094,-0.66042 1.22768,-18.71184 0.96968,-93.73469 -0.31414,-91.35005 -0.35703,-93.10569 -2.54347,-104.12256 -2.65984,-13.40224 -7.15619,-27.22689 -11.96699,-36.79419 -14.88119,-29.59442 -40.75976,-48.38548 -73.74843,-53.55055 -10.15909,-1.59062 -31.89246,-1.61198 -41,-0.0403 -23.00755,3.97042 -42.24992,15.59641 -57.66565,34.84084 -2.75361,3.4375 -5.40743,6.25 -5.89738,6.25 -0.48995,0 -1.0137,-7.9875 -1.1639,-17.75 l -0.27307,-17.74999 -47,0 -47,0 -0.25347,140.93884 c -0.2016,112.09083 0.003,141.10173 1,141.73468 1.92984,1.22529 89.51174,1.02622 91.81921,-0.2087 z M 204.53987,397.9665 c 18.82306,-4.85902 31.70076,-16.7554 36.98309,-34.16486 1.93039,-6.36218 1.87099,-19.59227 -0.11837,-26.36509 -3.87865,-13.20493 -13.45359,-24.97285 -24.61078,-30.24746 -18.14303,-8.5772 -44.06439,-7.26134 -59.13301,3.00181 -15.46415,10.53254 -23.59676,28.95146 -20.82373,47.16211 3.04167,19.97491 17.04491,35.26174 37.1629,40.56938 7.37879,1.94671 23.08167,1.96939 30.5399,0.0441 z"
         id="path3773"
         inkscape:connector-curvature="0" />
      <path
         style="fill:#2c2c2c"
         d="m 87.499973,821.82617 c -1.65,-0.21541 -3.9,-0.78468 -5,-1.26504 -18.043003,-7.87923 -24.535807,-13.13075 -29.631531,-23.96662 -1.704333,-3.6242 -3.609465,-7.67008 -4.233628,-8.99085 -1.628082,-3.44511 -1.628082,-552.75211 0,-556.19722 0.624163,-1.32077 2.529295,-5.36665 4.233628,-8.99085 3.986807,-8.4778 11.765779,-15.95022 20.873004,-20.05044 3.71719,-1.67354 7.839152,-3.56419 9.159915,-4.20145 3.463379,-1.67105 550.733839,-1.67105 554.197219,0 1.32077,0.63726 5.44273,2.52791 9.15992,4.20145 9.10722,4.10022 16.88619,11.57264 20.873,20.05044 1.70433,3.6242 3.60947,7.67008 4.23363,8.99085 1.62808,3.44511 1.62808,552.75211 0,556.19722 -0.62416,1.32077 -2.5293,5.36665 -4.23363,8.99085 -3.99585,8.49704 -11.77082,15.95881 -20.873,20.03219 -3.71719,1.66351 -7.65853,3.55416 -8.75853,4.20145 -1.51933,0.89405 -67.49111,1.20247 -274.5,1.28329 -149.875,0.0585 -273.849997,-0.0699 -275.499997,-0.28527 z M 236.79997,720.30505 c 0.92193,-0.92193 1.2,-33.70329 1.2,-141.46482 0,-137.65225 -0.036,-140.28409 -1.93426,-141.3 -2.65452,-1.42065 -90.47696,-1.42065 -93.13148,0 -1.89823,1.01591 -1.93426,3.64775 -1.93426,141.3 0,107.76153 0.27808,140.54289 1.2,141.46482 1.72764,1.72764 92.87236,1.72764 94.6,0 z m 146.89098,-0.05 c 0.44496,-0.6875 1.03402,-40.43451 1.30902,-88.32669 l 0.5,-87.07669 4.18011,-8.43451 c 11.63148,-23.4697 33.3704,-34.01856 58.3817,-28.32986 14.19488,3.22856 24.62819,13.56222 29.55248,29.27022 4.21983,13.46085 4.38292,17.22508 4.38434,101.19753 10e-4,61.31513 0.28792,80.83655 1.20137,81.75 0.89863,0.89863 12.77778,1.2 47.3,1.2 34.52222,0 46.40137,-0.30137 47.3,-1.2 1.51558,-1.51558 1.67905,-153.7856 0.18873,-175.8 -4.21923,-62.32469 -32.73599,-100.45524 -83.48873,-111.63512 -9.75673,-2.14922 -31.06765,-2.87902 -42,-1.43829 -23.64382,3.11591 -46.58979,15.88175 -60.25378,33.52178 -3.16042,4.08006 -6.08372,7.44829 -6.49622,7.48496 -0.4125,0.0367 -0.75,-7.32619 -0.75,-16.3619 0,-13.60173 -0.27039,-16.69897 -1.57143,-18 -1.38266,-1.38266 -6.99846,-1.56959 -46.75,-1.55612 -24.84821,0.008 -45.78722,0.401 -46.53112,0.8724 -1.12356,0.71198 -1.41057,24.61741 -1.69525,141.1982 -0.24052,98.49728 -0.0243,140.72469 0.725,141.6276 1.53813,1.85333 93.31496,1.88877 94.51378,0.0365 z M 206.49997,397.83763 c 24.56417,-6.145 40.24003,-29.38243 36.57992,-54.22499 -3.03652,-20.60997 -17.49553,-36.25116 -38.07992,-41.19335 -7.03477,-1.689 -22.89748,-1.6534 -30,0.0673 -13.23149,3.20561 -25.54566,11.68321 -31.84768,21.9253 -4.48664,7.29176 -7.15232,16.9883 -7.15232,26.01699 0,34.76849 32.81572,56.8359 70.5,47.40875 z"
         id="path3771"
         inkscape:connector-curvature="0" />
      <path
         style="fill:#000000"
         d="M 84.499973,819.92023 C 64.500904,813.7669 55.915411,805.47278 49.979652,786.57146 l -3.004229,-9.56641 0.290776,-269 c 0.159927,-147.95 0.547483,-269.675 0.861235,-270.5 0.313751,-0.825 0.828505,-2.175 1.143897,-3 0.315392,-0.825 1.304501,-3.81727 2.198021,-6.64948 3.100765,-9.82859 11.416526,-19.51977 20.737637,-24.16764 2.361141,-1.17736 8.117984,-3.27878 12.792984,-4.66984 l 8.5,-2.52919 267.999997,0.2866 c 147.4,0.15762 268.675,0.54329 269.5,0.85703 0.825,0.31374 2.175,0.83974 3,1.16888 0.825,0.32914 3.92822,1.29237 6.89604,2.14051 13.1704,3.76381 24.30605,15.05581 28.16763,28.56313 0.70757,2.475 1.77021,5.13164 2.36141,5.90364 0.75895,0.99104 1.15133,80.79739 1.33485,271.5 l 0.25994,270.09636 -2.63373,8.5 c -3.36539,10.86135 -5.56792,15.15702 -10.53373,20.54429 -5.22439,5.66779 -12.23926,10.10568 -18.95637,11.99254 -2.96782,0.83368 -6.29604,2.06644 -7.39604,2.73947 -1.56202,0.95572 -61.0183,1.26494 -271.5,1.41202 l -269.499997,0.18831 -8,-2.46145 z M 237.42854,720.93362 c 1.41363,-1.41363 1.57143,-15.65281 1.57143,-141.8 0,-107.73333 -0.27808,-140.50665 -1.2,-141.42857 -0.89948,-0.89948 -13.03663,-1.2 -48.46482,-1.2 -45.70588,0 -47.29895,0.0638 -48.29999,1.93426 -0.69939,1.30681 -1.03519,47.18396 -1.03519,141.42857 0,125.47968 0.15788,139.65219 1.57143,141.06574 1.38337,1.38338 7.11905,1.57143 47.92857,1.57143 40.80952,0 46.5452,-0.18805 47.92857,-1.57143 z m 146.57143,0.593 c 1.30835,-0.82671 1.56502,-12.16424 2.00886,-88.73469 0.43531,-75.09919 0.72608,-88.29273 2.01184,-91.28688 7.80209,-18.16871 20.6343,-29.70906 36.75982,-33.05908 7.9006,-1.64132 21.33794,-0.68868 28.46614,2.0181 8.21096,3.11794 15.87339,10.45986 20.22913,19.38293 7.27418,14.90176 6.90255,9.71084 7.49274,104.65805 0.29231,47.025 0.89553,86.0625 1.34049,86.75 0.62826,0.97071 11.28107,1.25 47.67857,1.25 41.27535,0 47.05711,-0.18756 48.44098,-1.57143 1.402,-1.402 1.57105,-10.05429 1.56789,-80.25 -0.002,-43.27321 -0.45664,-85.78109 -1.01041,-94.46195 -2.46852,-38.69584 -13.27626,-66.87802 -33.479,-87.29955 -14.93652,-15.09828 -31.6004,-23.36464 -55.35642,-27.46035 -39.56487,-6.82128 -75.1773,4.82234 -97.89996,32.00877 l -5.75067,6.88035 -0.5,-15.67292 c -0.275,-8.62011 -0.86406,-16.23542 -1.30902,-16.92292 -0.62846,-0.97103 -11.38355,-1.25 -48.19098,-1.25 -26.46287,0 -47.62384,0.39137 -47.92982,0.88645 -0.80893,1.30887 -0.94826,282.69278 -0.14063,283.99956 0.88049,1.42467 93.32279,1.55579 95.57045,0.13556 z M 205.53987,398.98343 c 30.53208,-7.79487 46.45658,-37.6305 35.53843,-66.58366 -5.73426,-15.20633 -17.34835,-25.42885 -34.58256,-30.43897 -4.38295,-1.27416 -8.65331,-1.55904 -18.83203,-1.2563 -12.16168,0.36172 -13.79585,0.64783 -21.46765,3.75865 -18.94478,7.68187 -31.19609,25.76342 -31.19609,46.0419 0,23.01618 15.23459,42.24398 38.42767,48.50015 6.97311,1.88095 24.70648,1.86893 32.11223,-0.0218 z"
         id="path3769"
         inkscape:connector-curvature="0" />
    </g>
  </g>
</svg>
