<?xml version="1.0" encoding="UTF-8" standalone="no"?>
<!-- Created with Inkscape (http://www.inkscape.org/) -->

<svg
   xmlns:dc="http://purl.org/dc/elements/1.1/"
   xmlns:cc="http://creativecommons.org/ns#"
   xmlns:rdf="http://www.w3.org/1999/02/22-rdf-syntax-ns#"
   xmlns:svg="http://www.w3.org/2000/svg"
   xmlns="http://www.w3.org/2000/svg"
   xmlns:sodipodi="http://sodipodi.sourceforge.net/DTD/sodipodi-0.dtd"
   xmlns:inkscape="http://www.inkscape.org/namespaces/inkscape"
   width="40"
   height="40"
   viewBox="0 0 39.999999 39.999999"
   id="svg3590"
   version="1.1"
   inkscape:version="0.91 r13725"
   sodipodi:docname="islug_icon_tw.svg">
  <defs
     id="defs3592" />
  <sodipodi:namedview
     id="base"
     pagecolor="#ffffff"
     bordercolor="#666666"
     borderopacity="1.0"
     inkscape:pageopacity="0.0"
     inkscape:pageshadow="2"
     inkscape:zoom="1"
     inkscape:cx="162.5"
     inkscape:cy="80"
     inkscape:document-units="px"
     inkscape:current-layer="layer1"
     showgrid="false"
     units="px"
     inkscape:window-width="1364"
     inkscape:window-height="751"
     inkscape:window-x="0"
     inkscape:window-y="15"
     inkscape:window-maximized="0" />
  <metadata
     id="metadata3595">
    <rdf:RDF>
      <cc:Work
         rdf:about="">
        <dc:format>image/svg+xml</dc:format>
        <dc:type
           rdf:resource="http://purl.org/dc/dcmitype/StillImage" />
        <dc:title></dc:title>
      </cc:Work>
    </rdf:RDF>
  </metadata>
  <g
     inkscape:label="Layer 1"
     inkscape:groupmode="layer"
     id="layer1"
     transform="translate(0,-1012.3622)">
    <g
       id="g3660"
       transform="matrix(0.07421875,0,0,0.07421875,-4.9441873,995.89781)">
      <path
         style="fill:#fefefe"
         d="m 89.714302,500.93362 0,-256 255.999998,0 256,0 0,256 0,256 -256,0 -255.999998,0 0,-256 z"
         id="path3676"
         inkscape:connector-curvature="0" />
      <path
         style="fill:#d0d0d0"
         d="m 209.19085,702.95789 c -25.03484,-3.74083 -46.49302,-19.37048 -57.95346,-42.21198 -8.54899,-17.03878 -8.02309,-6.49766 -8.02309,-160.81229 l 0,-136.5 2.3,-7.94341 c 7.83028,-27.04307 27.75525,-46.92804 54.90851,-54.79827 l 7.79149,-2.25832 136.5,0 c 154.31463,0 143.77351,-0.52591 160.81229,8.02309 20.05754,10.06362 34.01005,27.0379 40.42939,49.18542 l 2.25832,7.79149 0,136.5 c 0,154.31463 0.52591,143.77351 -8.02309,160.81229 -10.06282,20.05595 -27.3428,34.24006 -49.34126,40.5013 l -7.63565,2.17327 -134.5,0.14402 c -73.975,0.0792 -136.76055,-0.19377 -139.52345,-0.60661 z M 337.7143,597.61548 c 25.32327,-5.99687 44.75727,-16.59354 63.15544,-34.43642 25.27576,-24.51288 41.02445,-58.70855 42.48332,-92.24544 0.70057,-16.10505 0.65058,-15.95427 6.95812,-20.98741 5.48786,-4.37908 14.03636,-13.71268 13.26537,-14.48367 -0.21506,-0.21506 -3.39061,0.44074 -7.05677,1.45733 -14.59589,4.04732 -18.70209,2.4696 -10.55548,-4.0557 4.95739,-3.97079 8.36281,-7.76684 11.49488,-12.81345 3.07897,-4.96106 2.84976,-5.45982 -1.49488,-3.25279 -4.64581,2.36001 -19.63245,7.13569 -22.39266,7.13569 -1.12168,0 -3.89447,-1.58786 -6.16177,-3.52858 -9.42665,-8.06887 -21.90004,-12.09262 -34.69557,-11.19234 -18.33475,1.29001 -34.29877,13.15714 -41.16634,30.60172 -1.76284,4.47784 -2.25409,7.95505 -2.41855,17.1192 l -0.20637,11.5 -8.85437,-0.16831 c -16.45246,-0.31275 -40.49895,-8.1205 -58.60646,-19.02916 -9.4142,-5.67147 -24.4857,-17.91242 -30.55899,-24.81977 -4.90351,-5.57692 -5.15337,-5.46526 -7.87097,3.51724 -5.03956,16.65726 1.11968,37.5255 14.43484,48.90695 3.30276,2.82311 4.36084,4.35455 3.87798,5.61287 -0.76551,1.99488 -5.2926,1.62285 -14.40342,-1.18366 -2.89996,-0.8933 -5.49679,-1.40005 -5.77074,-1.1261 -0.27395,0.27395 0.0199,2.91318 0.6529,5.86497 3.49514,16.29726 13.85172,28.49151 29.6208,34.8767 11.0571,4.47723 8.77784,7.33146 -5.97916,7.48749 -3.46054,0.0366 -5.74931,0.49663 -5.75,1.15574 -0.002,2.28799 7.84265,13.09757 12.44685,17.15035 7.31503,6.43895 13.62262,9.08355 28.302,11.86627 4.64787,0.88108 2.60975,4.0643 -5.99128,9.35742 -14.61675,8.99522 -34.1766,14.989 -49.00872,15.01786 -3.7125,0.007 -6.75,0.40052 -6.75,0.87398 0,2.60539 28.70174,12.91292 43.5,15.62198 12.79262,2.34189 42.00928,1.39382 55.5,-1.80096 z"
         id="path3674"
         inkscape:connector-curvature="0" />
      <path
         style="fill:#aaaaaa"
         d="m 207.04905,701.83714 c -8.25139,-1.37811 -20.59189,-6.32607 -28.44049,-11.4033 -18.0385,-11.66905 -30.49803,-30.99516 -33.84686,-52.50022 -0.85948,-5.51924 -1.08598,-43.02157 -0.85766,-142 l 0.31026,-134.5 3.30919,-9.5 c 8.92173,-25.61245 26.32099,-42.08863 53.69081,-50.84236 4.45727,-1.42558 19.59955,-1.63601 139.5,-1.93866 99.10524,-0.25016 136.47369,-0.0322 142,0.82841 28.60429,4.45435 51.38185,23.7931 61.19081,51.95261 l 3.30919,9.5 0.31026,134.5 c 0.22833,98.97843 0.002,136.48076 -0.85765,142 -5.0274,32.28425 -29.40548,57.37265 -61.79058,63.59101 -6.103,1.17186 -29.66474,1.38932 -140,1.29209 -72.96412,-0.0643 -134.98639,-0.50511 -137.82728,-0.97958 z M 334.9133,598.98447 c 26.83797,-5.73089 47.08681,-16.47887 66.38653,-35.23764 11.78988,-11.45942 19.4454,-21.70198 26.92421,-36.02271 9.83273,-18.82814 15.28255,-38.8052 16.22129,-59.46135 0.30421,-6.69398 0.82668,-12.55401 1.16104,-13.02231 0.33436,-0.4683 3.209,-3.04517 6.38808,-5.72638 6.17471,-5.20769 14.29596,-14.33768 13.47967,-15.15397 -0.27139,-0.2714 -3.81588,0.37983 -7.87663,1.44717 -9.88012,2.59693 -13.71104,3.21389 -14.27635,2.29921 -0.25889,-0.4189 2.54885,-3.70889 6.23942,-7.31109 6.39623,-6.24307 12.29813,-15.05072 10.97317,-16.37569 -0.34131,-0.3413 -2.80281,0.48345 -5.47,1.8328 -5.82068,2.94472 -17.59049,6.68111 -21.0458,6.68111 -1.39982,0 -4.28926,-1.54378 -6.61425,-3.53388 -5.09863,-4.36424 -12.32047,-7.92532 -20.14948,-9.93567 -31.1936,-8.00997 -61.93296,18.54085 -59.18524,51.12066 0.5019,5.95103 0.33934,7.25234 -0.96869,7.75427 -2.33303,0.89527 -21.24597,-2.14186 -31.19695,-5.00976 -23.25975,-6.70352 -43.42839,-18.64644 -61.01964,-36.13297 -4.58184,-4.55457 -8.73833,-8.02906 -9.23663,-7.72109 -0.49831,0.30798 -1.86996,3.73353 -3.04811,7.61234 -1.76854,5.82253 -2.0598,8.76148 -1.67018,16.85284 0.41568,8.63242 0.89821,10.69808 4.0486,17.33191 2.35585,4.96076 5.63517,9.66139 9.60753,13.77162 3.31698,3.43209 5.77483,6.65443 5.4619,7.16076 -0.75289,1.21821 -8.6201,-0.008 -14.58145,-2.27363 -2.61339,-0.99301 -4.97381,-1.44596 -5.24538,-1.00655 -0.64579,1.0449 0.98033,9.3994 2.8505,14.6449 4.54639,12.75189 16.71409,24.56968 29.75789,28.90213 8.29501,2.75516 4.83941,5.10332 -7.86405,5.34381 -4.51004,0.0854 -6.25,0.49274 -6.25,1.46327 0,2.36754 7.51993,13.01495 12.25255,17.34828 5.98308,5.4783 14.78089,9.84814 23.28938,11.56774 3.76153,0.76022 7.00785,1.88835 7.21404,2.50694 1.01354,3.04061 -21.04695,14.76856 -34.25597,18.2114 -8.4547,2.20366 -26.49331,4.34421 -28.88259,3.42736 -0.77831,-0.29866 -1.70003,-0.082 -2.04826,0.48143 -0.71231,1.15254 12.13283,7.52416 23.01207,11.41476 6.71821,2.40255 22.83533,6.1548 30.41878,7.08185 8.79325,1.07493 35.75511,-0.31725 45.199,-2.33387 z"
         id="path3672"
         inkscape:connector-curvature="0" />
      <path
         style="fill:#8f8f8f"
         d="m 200.79149,699.87984 c -26.35779,-6.90177 -47.44547,-28.24948 -54.16884,-54.8368 -1.88412,-7.4507 -1.93468,-11.87502 -1.67554,-146.64595 l 0.26719,-138.96347 2.80777,-8 c 4.05184,-11.54467 9.9544,-20.92777 18.60943,-29.5828 8.65503,-8.65503 18.03813,-14.55759 29.5828,-18.60943 l 8,-2.80777 138.96347,-0.26719 c 134.77093,-0.25914 139.19525,-0.20859 146.64595,1.67554 26.78709,6.77388 48.07281,27.93443 54.88239,54.55963 1.96283,7.67457 2.00819,10.93949 2.00819,144.53202 0,131.99547 -0.0665,136.94004 -1.93991,144.26504 -6.79451,26.5663 -28.22875,48.00054 -54.79505,54.79505 -7.33096,1.87495 -12.17591,1.93807 -144.675,1.88485 -132.45665,-0.0532 -137.34092,-0.12076 -144.51285,-1.99872 z m 129.43626,-99.5065 c 20.67547,-3.52817 42.67749,-12.87141 58.63043,-24.89764 16.35872,-12.33214 31.3626,-30.47425 40.74871,-49.27176 9.08778,-18.20005 13.52173,-34.47347 15.33175,-56.27032 l 1.20409,-14.5 8.31468,-7.88621 c 8.42998,-7.99557 12.89403,-13.30998 11.96262,-14.24139 -0.28185,-0.28185 -3.39956,0.37928 -6.92825,1.46918 -6.78043,2.09426 -15.77748,3.73396 -15.77748,2.87541 0,-0.28055 3.04976,-3.59415 6.77724,-7.36354 6.36082,-6.43234 12.36852,-15.54103 11.09208,-16.81746 -0.31387,-0.31387 -3.45036,0.76334 -6.96999,2.39379 -3.51963,1.63045 -9.85456,3.96891 -14.07761,5.19657 l -7.67828,2.23212 -4.32172,-3.51319 c -10.32948,-8.39698 -19.73872,-11.84528 -32.32172,-11.84528 -13.63926,0 -25.06246,4.6577 -34.45238,14.04762 -9.85501,9.855 -14.04762,20.68228 -14.04762,36.27748 l 0,9.9621 -7.1381,-0.66342 c -31.04375,-2.88521 -60.52447,-16.80444 -84.49878,-39.89585 l -10.36334,-9.98168 -1.97546,4.46587 c -7.65801,17.3122 -3.26238,39.50635 10.56244,53.33116 2.97728,2.97728 5.41324,5.64802 5.41324,5.93498 0,1.21098 -7.91297,0.31118 -13,-1.47826 -3.025,-1.06409 -5.89946,-1.9494 -6.38768,-1.96735 -1.39518,-0.0513 0.18758,10.38565 2.44254,16.10654 4.69859,11.92042 15.92482,23.47027 26.6729,27.4418 10.05639,3.71595 8.98506,5.38057 -3.47776,5.4037 -5.93024,0.011 -8.24736,0.36679 -8.24062,1.26531 0.0195,2.60065 6.45951,12.34933 11.46387,17.35368 6.19687,6.19687 15.0388,10.88987 24.57445,13.04329 3.82376,0.86352 6.94836,2.08371 6.94355,2.71153 -0.0129,1.67793 -10.82671,8.35833 -19.83314,12.25218 -11.42654,4.94018 -22.16337,7.43085 -34.90811,8.0978 -6.1875,0.3238 -11.25,0.93186 -11.25,1.35125 0,0.41938 4.1625,2.78471 9.25,5.25628 9.58922,4.65855 24.06494,9.62124 33.96186,11.64308 15.19853,3.1049 35.81291,3.29434 52.30159,0.48063 z"
         id="path3670"
         inkscape:connector-curvature="0" />
      <path
         style="fill:#6f6f6f"
         d="m 204.7143,700.37387 c -29.7712,-6.41572 -52.3605,-29.0933 -58.41975,-58.64809 -1.3938,-6.79843 -1.58025,-23.40986 -1.58025,-140.79216 0,-117.3823 0.18645,-133.99373 1.58025,-140.79216 6.07904,-29.65132 28.97627,-52.54855 58.62759,-58.6276 6.79843,-1.39379 23.40986,-1.58024 140.79216,-1.58024 117.3823,0 133.99373,0.18645 140.79216,1.58024 29.65132,6.07905 52.54855,28.97628 58.6276,58.6276 1.39379,6.79843 1.58024,23.40986 1.58024,140.79216 0,145.75747 0.20115,140.45979 -5.88609,155.01897 -7.23274,17.2989 -22.79604,32.8622 -40.09494,40.09494 -14.58173,6.09667 -9.13815,5.89369 -155.72681,5.80659 -110.72864,-0.0658 -134.91265,-0.32097 -140.29216,-1.48025 z m 117.69691,-98.51273 c 31.44952,-3.50683 59.27456,-16.85774 81.28233,-39.00058 25.00297,-25.15644 39.99328,-59.23782 41.75254,-94.92694 l 0.56688,-11.5 9.22086,-9 c 8.6165,-8.41012 13.27222,-14.04159 12.36153,-14.95229 -0.21443,-0.21442 -4.15137,0.69962 -8.74876,2.03121 -4.59739,1.3316 -9.7704,2.41612 -11.49559,2.41005 l -3.1367,-0.011 5.22377,-4.73897 c 7.73046,-7.01306 15.01519,-19.239 11.46338,-19.239 -0.44706,0 -3.03456,1.06079 -5.75,2.35731 -4.64004,2.21545 -15.14558,5.83456 -20.20043,6.95896 -1.603,0.35656 -3.49931,-0.5357 -6.5,-3.05842 -6.25018,-5.2546 -17.08812,-10.04565 -25.74924,-11.38278 -17.98862,-2.77714 -37.72554,6.2971 -47.73702,21.94758 -5.69154,8.89729 -7.50695,15.30774 -7.69653,27.17735 l -0.1677,10.5 -5.44311,-0.27066 c -19.17409,-0.95345 -44.25332,-9.59695 -63.10665,-21.74956 -9.19979,-5.93007 -22.48053,-17.11905 -27.2989,-22.99924 -2.01931,-2.4643 -4.28401,-4.48054 -5.03267,-4.48054 -2.41375,0 -5.70352,10.8227 -6.2495,20.55963 -0.80792,14.40841 3.21275,25.43143 13.21801,36.2383 3.03962,3.28316 5.52659,6.24674 5.52659,6.58573 0,1.49372 -9.54007,-0.65734 -17.40012,-3.92332 -1.78408,-0.74131 -1.86751,-0.38316 -1.366,5.8646 1.22457,15.25548 12.71147,30.76086 28.26612,38.15449 9.28409,4.41304 8.73486,5.3341 -3.25,5.45028 -8.81177,0.0854 -9.10313,0.91162 -3.40854,9.66525 7.80007,11.99016 19.70412,20.14012 33.0395,22.6201 3.36547,0.62587 6.11904,1.48691 6.11904,1.9134 0,1.32747 -8.60857,6.77614 -17.24059,10.91217 -10.84461,5.1962 -24.91701,8.67207 -38.62024,9.53917 -6.0959,0.38573 -10.83653,1.10087 -10.53473,1.58919 0.3018,0.48833 4.61411,2.92962 9.58291,5.4251 23.69045,11.89806 50.51956,16.4545 78.50956,13.33343 z"
         id="path3668"
         inkscape:connector-curvature="0" />
      <path
         style="fill:#545454"
         d="m 209.2143,700.817 c -27.49572,-3.99944 -50.37671,-22.76936 -59.62905,-48.91539 -1.53037,-4.32464 -3.27237,-11.5991 -3.87111,-16.16548 -0.75187,-5.73421 -0.9902,-49.13546 -0.77045,-140.30251 0.30139,-125.04157 0.416,-132.34265 2.17421,-138.5 7.90033,-27.66749 27.58319,-47.30428 54.8539,-54.72549 5.69568,-1.54997 17.80523,-1.72789 138.2425,-2.03104 91.24328,-0.22966 134.56351,0.004 140.30251,0.75637 31.12191,4.08069 54.93836,24.98747 63.79389,56.00016 1.75821,6.15735 1.87282,13.45843 2.17422,138.5 0.21974,91.16705 -0.0186,134.5683 -0.77046,140.30251 -1.28795,9.82273 -5.31877,21.76068 -10.07687,29.84438 -4.39984,7.47502 -17.80138,20.87656 -25.2764,25.2764 -7.83431,4.61131 -19.73437,8.70427 -29.09089,10.00564 -9.43972,1.31294 -263.00837,1.27048 -272.056,-0.0455 z m 119.37166,-99.44186 c 5.84559,-0.85716 16.02834,-3.35406 22.62834,-5.54865 21.01101,-6.98646 35.82804,-16.2003 52.06012,-32.37313 25.79413,-25.69996 40.5508,-58.38991 42.14022,-93.35179 l 0.6061,-13.33206 9.59678,-9.34685 c 9.25006,-9.00916 14.34076,-15.48904 12.16843,-15.48904 -0.57279,0 -4.92357,1.125 -9.66841,2.5 -13.24303,3.83768 -13.73502,3.56494 -6.76472,-3.75 6.54749,-6.87123 9.82156,-11.71184 10.93321,-16.16442 0.57197,-2.29098 0.4282,-2.78805 -0.67205,-2.32367 -13.82981,5.83714 -19.26018,7.8784 -23.5202,8.84116 l -5.12052,1.15724 -5.37948,-4.01758 c -6.88308,-5.14053 -12.36993,-7.87496 -19.55908,-9.74749 -21.51161,-5.60307 -45.11136,5.05397 -55.44941,25.03953 -4.66275,9.01403 -6.03931,14.95273 -5.76984,24.89184 l 0.21889,8.07339 -3.62925,0.30853 c -5.6196,0.47774 -21.12956,-2.53893 -32.34211,-6.29049 -20.95981,-7.01285 -38.03172,-17.45478 -54.28611,-33.20374 -7.98982,-7.74139 -10.82125,-9.92954 -11.79882,-9.11823 -2.58215,2.143 -5.69871,14.97446 -5.66016,23.30393 0.0603,13.03315 6.74805,28.56943 15.44978,35.89145 1.62064,1.36369 2.94663,2.73348 2.94663,3.04399 0,1.26971 -6.28052,0.43153 -11.55575,-1.54218 -7.35522,-2.75194 -8.18682,-1.98799 -6.6765,6.13335 3.05295,16.4164 15.19117,31.57182 30.04717,37.51601 2.30179,0.921 4.18508,2.01816 4.18508,2.43815 0,1.19781 -7.59301,2.10795 -11.87441,1.42332 -5.34878,-0.8553 -5.84749,0.63251 -2.46771,7.36211 5.7941,11.53687 18.36887,21.50057 31.2704,24.77731 10.15799,2.57994 9.57988,2.2375 7.55492,4.47505 -2.8275,3.12436 -23.18651,12.70061 -31.9832,15.04392 -5.21665,1.38964 -12.4494,2.31803 -20.78863,2.66842 -8.70606,0.36581 -12.68964,0.89357 -12.47857,1.65322 0.54201,1.95074 22.91774,12.43834 32.2672,15.12377 4.95,1.42179 12.6,3.19335 17,3.9368 11.10892,1.87705 33.55961,1.87552 46.37166,-0.003 z"
         id="path3666"
         inkscape:connector-curvature="0" />
      <path
         style="fill:#2e2e2e"
         d="m 204.07826,699.45057 c -14.6283,-3.20612 -27.35446,-10.52403 -38.01987,-21.86254 -8.29867,-8.8224 -12.57052,-15.82563 -16.70935,-27.3932 l -3.13474,-8.76121 0,-140.5 0,-140.5 2.74384,-8 c 8.0095,-23.35268 24.90348,-40.24667 48.25616,-48.25616 l 8,-2.74384 140.5,0 140.5,0 8.76121,3.13473 c 12.40995,4.44025 18.99659,8.63616 28.82932,18.36527 9.45172,9.35212 14.09263,16.71538 18.59322,29.5 l 2.81625,8 0,140.5 0,140.5 -3.13474,8.76121 c -4.4567,12.45597 -8.66009,19.03362 -18.36526,28.73879 -9.70517,9.70517 -16.28282,13.90856 -28.73879,18.36526 l -8.76121,3.13474 -138,0.1809 c -112.40035,0.14734 -139.13826,-0.0686 -144.13604,-1.16395 z m 129.66269,-98.51721 c 28.06704,-5.70584 50.8235,-17.729 69.97335,-36.96975 25.66705,-25.78889 40.58121,-59.41441 42.68855,-96.24575 l 0.63822,-11.15464 10.20208,-10.0648 c 9.14972,-9.02659 12.61592,-13.75337 11.15605,-15.21323 -0.27374,-0.27374 -4.16306,0.66017 -8.64293,2.07536 -7.21021,2.2777 -12.04197,3.18604 -12.04197,2.2638 0,-0.1701 2.14201,-2.5326 4.76001,-5.25 4.74635,-4.92655 9.36145,-11.92315 10.67973,-16.19073 0.91745,-2.97001 -0.67095,-2.92219 -7.81024,0.23515 -4.84776,2.14391 -12.67831,4.83938 -20.25248,6.97141 -1.53,0.43067 -3.34556,-0.43004 -6.5,-3.08149 -10.51341,-8.83699 -26.16374,-13.3816 -39.31066,-11.4152 -25.84667,3.86591 -45.70175,28.72293 -43.0529,53.89891 l 0.66903,6.35877 -6.34125,-0.69444 c -32.27122,-3.53408 -61.99882,-17.81593 -84.58176,-40.63509 -4.81771,-4.8681 -9.34494,-8.85941 -10.06051,-8.86956 -2.83629,-0.0402 -7.16972,14.44338 -7.1871,24.02144 -0.0228,12.57118 4.363,23.83246 12.93428,33.21081 2.77962,3.04134 5.05385,5.80411 5.05385,6.1395 0,1.17418 -3.55661,0.54762 -10.19808,-1.79655 -3.68394,-1.30029 -6.94644,-2.1158 -7.25,-1.81225 -0.98295,0.98295 -0.56243,7.59057 0.80943,12.71859 3.48972,13.04456 14.54889,26.45683 26.38865,32.00347 3.4375,1.61039 6.25,3.2809 6.25,3.71225 0,0.43135 -3.65625,0.78428 -8.125,0.78428 l -8.125,0 0.60261,3.01303 c 1.52961,7.64808 13.82551,21.50985 23.37042,26.34662 2.78172,1.4096 8.03202,3.31005 11.66732,4.22321 3.63531,0.91316 6.60885,1.94308 6.60786,2.28871 -0.002,0.82367 -7.07956,5.20478 -13.99821,8.66551 -12.86882,6.43702 -30.43431,10.44465 -45.83333,10.45702 -9.35021,0.008 -9.11377,1.15322 1.38615,6.71705 14.21202,7.53083 32.25102,13.18884 48.62088,15.25013 11.28813,1.42141 32.85084,0.47841 44.85295,-1.96154 z"
         id="path3664"
         inkscape:connector-curvature="0" />
      <path
         style="fill:#000000"
         d="m 201.27718,697.94421 c -3.81542,-1.028 -10.79042,-3.77638 -15.5,-6.10752 -6.93431,-3.43234 -10.28482,-5.96581 -17.61672,-13.32076 -7.65673,-7.68081 -9.76606,-10.54826 -13.66936,-18.58231 -8.34042,-17.16685 -7.7768,-5.64333 -7.7768,-159 0,-153.24846 -0.56052,-141.7025 7.71741,-158.96818 3.88494,-8.10301 5.85923,-10.78795 13.69285,-18.62156 7.7784,-7.77841 10.57566,-9.84332 18.62156,-13.74629 16.83157,-8.16478 5.77608,-7.6326 158.90429,-7.64919 153.43446,-0.0166 141.89424,-0.57976 159.06389,7.76202 8.03656,3.90452 10.90514,6.01514 18.62157,13.70118 7.82039,7.78961 9.76911,10.43628 13.66102,18.55384 8.27793,17.26568 7.71741,5.71972 7.71741,158.96818 0,122.56307 -0.16466,137.03689 -1.62612,142.93611 -6.6428,26.81379 -27.62398,47.79497 -54.43777,54.43777 -5.90612,1.46317 -20.2863,1.62009 -143.5,1.56595 -130.49143,-0.0573 -137.26259,-0.14813 -143.87323,-1.92924 z M 330.7143,602.27849 c 64.75483,-10.5263 112.06097,-65.43972 116.59522,-135.34487 l 0.68106,-10.5 8.27115,-7.75533 c 9.07604,-8.51001 15.06887,-16.52837 13.51469,-18.08255 -0.61419,-0.61419 -3.85155,-0.005 -8.97647,1.68862 -11.45083,3.78454 -12.0739,3.54229 -6.58665,-2.56085 5.81201,-6.46436 11.13577,-16.55512 9.56369,-18.1272 -0.7875,-0.7875 -1.99004,-0.71977 -4.32666,0.24366 -9.15856,3.77627 -20.58922,7.95676 -23.33581,8.53452 -2.60344,0.54765 -3.7946,0.0715 -7.43921,-2.97345 -9.04844,-7.55975 -20.10993,-11.46742 -32.46101,-11.46742 -14.35417,0 -26.47178,5.13516 -36.32083,15.39192 -9.88332,10.29246 -14.17917,21.13559 -14.17917,35.78958 0,10.32623 1.05136,9.78714 -14.07378,7.21634 -28.32265,-4.81396 -52.88306,-17.46684 -74.13755,-38.19371 -12.54119,-12.22986 -12.7117,-12.25186 -16.62481,-2.14481 -2.03394,5.25342 -2.50678,8.28406 -2.56505,16.44068 -0.10221,14.30537 3.63608,24.37515 12.69909,34.20736 2.19699,2.38345 3.71485,4.61323 3.37301,4.95506 -0.34183,0.34183 -3.87366,-0.53767 -7.84852,-1.95444 -3.97485,-1.41677 -7.58597,-2.3541 -8.0247,-2.08295 -2.38271,1.4726 0.38905,15.86315 4.69028,24.35123 3.81463,7.52781 13.42023,17.18281 21.24947,21.35875 l 6.76256,3.607 -7.28138,0.029 c -9.21598,0.0367 -9.76391,1.05522 -5.25062,9.76014 6.29473,12.14085 19.45689,22.38334 32.782,25.51019 2.8875,0.67758 5.25,1.54289 5.25,1.92291 0,1.08172 -10.8597,7.36785 -17.58362,10.17827 -11.03641,4.61292 -21.16662,6.7627 -34.41638,7.30367 -6.875,0.2807 -13.05491,0.6831 -13.73314,0.89423 -2.62212,0.81626 0.17193,3.33438 8.53202,7.68944 28.51121,14.85248 58.30147,19.46306 91.20112,14.11501 z"
         id="path3662"
         inkscape:connector-curvature="0" />
    </g>
  </g>
</svg>
